<?xml version="1.0" standalone="no"?>
<!DOCTYPE svg PUBLIC "-//W3C//DTD SVG 20010904//EN"
 "http://www.w3.org/TR/2001/REC-SVG-20010904/DTD/svg10.dtd">
<svg version="1.0" xmlns="http://www.w3.org/2000/svg"
 width="36.000000pt" height="32.000000pt" viewBox="0 0 36.000000 32.000000"
 preserveAspectRatio="xMidYMid meet">

<g transform="translate(0.000000,32.000000) scale(0.100000,-0.100000)"
fill="#000000" stroke="none">
<path d="M156 274 c-3 -9 -6 -17 -6 -18 0 -1 9 -2 20 -3 17 -2 18 1 10 18 -13
23 -16 24 -24 3z"/>
<path d="M165 218 c4 -20 1 -28 -8 -28 -8 0 -26 -10 -41 -21 -22 -17 -27 -28
-24 -58 3 -31 7 -36 31 -39 16 -2 34 2 42 8 9 7 15 8 20 0 3 -5 20 -10 37 -10
31 0 31 0 12 -21 -19 -22 -19 -22 2 -9 13 8 21 24 22 43 0 17 6 33 12 37 16
10 -34 66 -65 74 -14 4 -30 17 -36 29 -8 20 -9 19 -4 -5z m56 -57 c23 -19 23
-20 3 -15 -23 6 -54 -18 -54 -41 0 -21 -40 -29 -57 -12 -21 21 -6 40 28 35 16
-3 29 -1 29 3 0 12 -31 20 -54 14 -20 -6 -20 -5 3 14 29 26 72 27 102 2z m24
-50 c0 -8 -8 -19 -17 -25 -22 -13 -44 5 -34 29 7 20 51 16 51 -4z"/>
</g>
</svg>
